<mxfile host="app.diagrams.net" modified="2022-07-28T02:06:41.144Z" agent="5.0 (Macintosh; Intel Mac OS X 10_15_7) AppleWebKit/537.36 (KHTML, like Gecko) Chrome/103.0.0.0 Safari/537.36" etag="8gJqZoRN-MyDWb9OhkTm" version="20.0.2" type="github" pages="2">
  <diagram id="AaV7vf_FaJcK-aO9YxgY" name="Page-1">
    <mxGraphModel dx="1426" dy="794" grid="1" gridSize="10" guides="1" tooltips="1" connect="1" arrows="1" fold="1" page="1" pageScale="1" pageWidth="827" pageHeight="1169" math="0" shadow="0">
      <root>
        <mxCell id="0" />
        <mxCell id="1" parent="0" />
        <mxCell id="PtKETALLN2fyuNssEaAm-1" value="&lt;font style=&quot;font-size: 48px;&quot;&gt;2020.9 = +2.0209 * 10&lt;sup style=&quot;&quot;&gt;3&lt;/sup&gt;&lt;/font&gt;" style="text;html=1;resizable=0;autosize=1;align=center;verticalAlign=middle;points=[];fillColor=none;strokeColor=none;rounded=0;" vertex="1" parent="1">
          <mxGeometry x="140" y="130" width="520" height="80" as="geometry" />
        </mxCell>
        <mxCell id="PtKETALLN2fyuNssEaAm-2" value="" style="endArrow=classic;html=1;rounded=0;fontSize=48;" edge="1" parent="1">
          <mxGeometry width="50" height="50" relative="1" as="geometry">
            <mxPoint x="370" y="80" as="sourcePoint" />
            <mxPoint x="370" y="160" as="targetPoint" />
          </mxGeometry>
        </mxCell>
        <mxCell id="PtKETALLN2fyuNssEaAm-3" value="" style="endArrow=classic;html=1;rounded=0;fontSize=48;" edge="1" parent="1">
          <mxGeometry width="50" height="50" relative="1" as="geometry">
            <mxPoint x="450" y="280" as="sourcePoint" />
            <mxPoint x="450" y="200" as="targetPoint" />
          </mxGeometry>
        </mxCell>
        <mxCell id="PtKETALLN2fyuNssEaAm-4" value="" style="endArrow=none;html=1;rounded=0;fontSize=48;" edge="1" parent="1">
          <mxGeometry width="50" height="50" relative="1" as="geometry">
            <mxPoint x="380" y="200" as="sourcePoint" />
            <mxPoint x="530" y="200" as="targetPoint" />
          </mxGeometry>
        </mxCell>
        <mxCell id="PtKETALLN2fyuNssEaAm-5" value="" style="endArrow=none;html=1;rounded=0;fontSize=48;" edge="1" parent="1">
          <mxGeometry width="50" height="50" relative="1" as="geometry">
            <mxPoint x="580" y="200" as="sourcePoint" />
            <mxPoint x="630" y="200" as="targetPoint" />
          </mxGeometry>
        </mxCell>
        <mxCell id="PtKETALLN2fyuNssEaAm-6" value="" style="endArrow=classic;html=1;rounded=0;fontSize=48;" edge="1" parent="1">
          <mxGeometry width="50" height="50" relative="1" as="geometry">
            <mxPoint x="610" y="280" as="sourcePoint" />
            <mxPoint x="610" y="200" as="targetPoint" />
          </mxGeometry>
        </mxCell>
        <mxCell id="PtKETALLN2fyuNssEaAm-7" value="" style="endArrow=classic;html=1;rounded=0;fontSize=48;" edge="1" parent="1">
          <mxGeometry width="50" height="50" relative="1" as="geometry">
            <mxPoint x="680" y="100" as="sourcePoint" />
            <mxPoint x="650" y="150" as="targetPoint" />
          </mxGeometry>
        </mxCell>
        <mxCell id="PtKETALLN2fyuNssEaAm-8" value="&lt;font color=&quot;#ff0000&quot; style=&quot;font-size: 18px;&quot;&gt;符号(sign)&lt;/font&gt;" style="text;html=1;resizable=0;autosize=1;align=center;verticalAlign=middle;points=[];fillColor=none;strokeColor=none;rounded=0;fontSize=48;" vertex="1" parent="1">
          <mxGeometry x="320" y="20" width="100" height="70" as="geometry" />
        </mxCell>
        <mxCell id="PtKETALLN2fyuNssEaAm-9" value="&lt;font color=&quot;#ff0000&quot; style=&quot;font-size: 18px;&quot;&gt;尾数(mantissa)&lt;/font&gt;" style="text;html=1;resizable=0;autosize=1;align=center;verticalAlign=middle;points=[];fillColor=none;strokeColor=none;rounded=0;fontSize=48;" vertex="1" parent="1">
          <mxGeometry x="380" y="250" width="140" height="70" as="geometry" />
        </mxCell>
        <mxCell id="PtKETALLN2fyuNssEaAm-10" value="&lt;font color=&quot;#ff0000&quot; style=&quot;font-size: 18px;&quot;&gt;基数(base)&lt;/font&gt;" style="text;html=1;resizable=0;autosize=1;align=center;verticalAlign=middle;points=[];fillColor=none;strokeColor=none;rounded=0;fontSize=48;" vertex="1" parent="1">
          <mxGeometry x="555" y="250" width="110" height="70" as="geometry" />
        </mxCell>
        <mxCell id="PtKETALLN2fyuNssEaAm-11" value="&lt;font color=&quot;#ff0000&quot; style=&quot;font-size: 18px;&quot;&gt;指数(exponent)&lt;/font&gt;" style="text;html=1;resizable=0;autosize=1;align=center;verticalAlign=middle;points=[];fillColor=none;strokeColor=none;rounded=0;fontSize=48;" vertex="1" parent="1">
          <mxGeometry x="620" y="40" width="150" height="70" as="geometry" />
        </mxCell>
      </root>
    </mxGraphModel>
  </diagram>
  <diagram id="mHT3sEapktrNnaSBlS1p" name="Page-2">
    <mxGraphModel dx="1426" dy="794" grid="1" gridSize="10" guides="1" tooltips="1" connect="1" arrows="1" fold="1" page="1" pageScale="1" pageWidth="827" pageHeight="1169" math="0" shadow="0">
      <root>
        <mxCell id="0" />
        <mxCell id="1" parent="0" />
        <mxCell id="oYV344bJFudDzy7ibG9--1" value="" style="shape=waypoint;sketch=0;fillStyle=solid;size=6;pointerEvents=1;points=[];fillColor=none;resizable=0;rotatable=0;perimeter=centerPerimeter;snapToPoint=1;fontSize=20;fontColor=#000000;strokeWidth=3;" vertex="1" parent="1">
          <mxGeometry x="105" y="80" width="40" height="40" as="geometry" />
        </mxCell>
        <mxCell id="oYV344bJFudDzy7ibG9--2" value="双精度浮点数（&lt;font color=&quot;#ff0000&quot;&gt;64位&lt;/font&gt;）" style="text;html=1;resizable=0;autosize=1;align=center;verticalAlign=middle;points=[];fillColor=none;strokeColor=none;rounded=0;fontSize=20;fontColor=#000000;" vertex="1" parent="1">
          <mxGeometry x="125" y="80" width="230" height="40" as="geometry" />
        </mxCell>
        <mxCell id="oYV344bJFudDzy7ibG9--3" value="&lt;font style=&quot;font-size: 14px;&quot;&gt;符号部分&lt;/font&gt;" style="text;html=1;resizable=0;autosize=1;align=center;verticalAlign=middle;points=[];fillColor=none;strokeColor=none;rounded=0;fontSize=20;fontColor=#000000;" vertex="1" parent="1">
          <mxGeometry x="95" y="350" width="80" height="40" as="geometry" />
        </mxCell>
        <mxCell id="oYV344bJFudDzy7ibG9--4" value="&lt;font style=&quot;font-size: 14px;&quot;&gt;尾数部分&lt;/font&gt;" style="text;html=1;resizable=0;autosize=1;align=center;verticalAlign=middle;points=[];fillColor=none;strokeColor=none;rounded=0;fontSize=20;fontColor=#000000;" vertex="1" parent="1">
          <mxGeometry x="320" y="350" width="80" height="40" as="geometry" />
        </mxCell>
        <mxCell id="oYV344bJFudDzy7ibG9--5" value="&lt;font style=&quot;font-size: 14px;&quot;&gt;指数部分&lt;/font&gt;" style="text;html=1;resizable=0;autosize=1;align=center;verticalAlign=middle;points=[];fillColor=none;strokeColor=none;rounded=0;fontSize=20;fontColor=#000000;" vertex="1" parent="1">
          <mxGeometry x="152.5" y="350" width="80" height="40" as="geometry" />
        </mxCell>
        <mxCell id="oYV344bJFudDzy7ibG9--6" value="" style="shape=waypoint;sketch=0;fillStyle=solid;size=6;pointerEvents=1;points=[];fillColor=none;resizable=0;rotatable=0;perimeter=centerPerimeter;snapToPoint=1;fontSize=20;fontColor=#000000;strokeWidth=3;" vertex="1" parent="1">
          <mxGeometry x="115" y="240" width="40" height="40" as="geometry" />
        </mxCell>
        <mxCell id="oYV344bJFudDzy7ibG9--7" value="单精度浮点数（&lt;font color=&quot;#ff0000&quot;&gt;32位&lt;/font&gt;）" style="text;html=1;resizable=0;autosize=1;align=center;verticalAlign=middle;points=[];fillColor=none;strokeColor=none;rounded=0;fontSize=20;fontColor=#000000;" vertex="1" parent="1">
          <mxGeometry x="135" y="240" width="230" height="40" as="geometry" />
        </mxCell>
        <mxCell id="oYV344bJFudDzy7ibG9--8" value="&lt;font style=&quot;font-size: 14px;&quot;&gt;1位&lt;/font&gt;" style="text;html=1;resizable=0;autosize=1;align=center;verticalAlign=middle;points=[];fillColor=none;strokeColor=none;rounded=0;fontSize=20;fontColor=#000000;" vertex="1" parent="1">
          <mxGeometry x="115" y="290" width="50" height="40" as="geometry" />
        </mxCell>
        <mxCell id="oYV344bJFudDzy7ibG9--9" value="&lt;font style=&quot;font-size: 14px;&quot;&gt;23位&lt;/font&gt;" style="text;html=1;resizable=0;autosize=1;align=center;verticalAlign=middle;points=[];fillColor=none;strokeColor=none;rounded=0;fontSize=20;fontColor=#000000;" vertex="1" parent="1">
          <mxGeometry x="320" y="290" width="50" height="40" as="geometry" />
        </mxCell>
        <mxCell id="oYV344bJFudDzy7ibG9--10" value="&lt;font style=&quot;font-size: 14px;&quot;&gt;8位&lt;/font&gt;" style="text;html=1;resizable=0;autosize=1;align=center;verticalAlign=middle;points=[];fillColor=none;strokeColor=none;rounded=0;fontSize=20;fontColor=#000000;" vertex="1" parent="1">
          <mxGeometry x="162.5" y="290" width="50" height="40" as="geometry" />
        </mxCell>
        <mxCell id="oYV344bJFudDzy7ibG9--11" value="" style="shape=crossbar;whiteSpace=wrap;html=1;rounded=1;fontSize=14;fontColor=#000000;strokeWidth=3;fillOpacity=100;labelPadding=0;" vertex="1" parent="1">
          <mxGeometry x="132.5" y="330" width="10" height="20" as="geometry" />
        </mxCell>
        <mxCell id="oYV344bJFudDzy7ibG9--12" value="" style="shape=crossbar;whiteSpace=wrap;html=1;rounded=1;fontSize=14;fontColor=#000000;strokeWidth=3;fillOpacity=100;labelPadding=0;" vertex="1" parent="1">
          <mxGeometry x="222.5" y="330" width="230" height="20" as="geometry" />
        </mxCell>
        <mxCell id="oYV344bJFudDzy7ibG9--13" value="" style="shape=crossbar;whiteSpace=wrap;html=1;rounded=1;fontSize=14;fontColor=#000000;strokeWidth=3;fillOpacity=100;labelPadding=0;" vertex="1" parent="1">
          <mxGeometry x="142.5" y="330" width="80" height="20" as="geometry" />
        </mxCell>
        <mxCell id="oYV344bJFudDzy7ibG9--14" value="&lt;font style=&quot;font-size: 14px;&quot;&gt;符号部分&lt;/font&gt;" style="text;html=1;resizable=0;autosize=1;align=center;verticalAlign=middle;points=[];fillColor=none;strokeColor=none;rounded=0;fontSize=20;fontColor=#000000;" vertex="1" parent="1">
          <mxGeometry x="85" y="180" width="80" height="40" as="geometry" />
        </mxCell>
        <mxCell id="oYV344bJFudDzy7ibG9--15" value="&lt;font style=&quot;font-size: 14px;&quot;&gt;尾数部分&lt;/font&gt;" style="text;html=1;resizable=0;autosize=1;align=center;verticalAlign=middle;points=[];fillColor=none;strokeColor=none;rounded=0;fontSize=20;fontColor=#000000;" vertex="1" parent="1">
          <mxGeometry x="480" y="180" width="80" height="40" as="geometry" />
        </mxCell>
        <mxCell id="oYV344bJFudDzy7ibG9--16" value="&lt;font style=&quot;font-size: 14px;&quot;&gt;指数部分&lt;/font&gt;" style="text;html=1;resizable=0;autosize=1;align=center;verticalAlign=middle;points=[];fillColor=none;strokeColor=none;rounded=0;fontSize=20;fontColor=#000000;" vertex="1" parent="1">
          <mxGeometry x="147.5" y="180" width="80" height="40" as="geometry" />
        </mxCell>
        <mxCell id="oYV344bJFudDzy7ibG9--17" value="&lt;font style=&quot;font-size: 14px;&quot;&gt;1位&lt;/font&gt;" style="text;html=1;resizable=0;autosize=1;align=center;verticalAlign=middle;points=[];fillColor=none;strokeColor=none;rounded=0;fontSize=20;fontColor=#000000;" vertex="1" parent="1">
          <mxGeometry x="102.5" y="120" width="50" height="40" as="geometry" />
        </mxCell>
        <mxCell id="oYV344bJFudDzy7ibG9--18" value="&lt;font style=&quot;font-size: 14px;&quot;&gt;52位&lt;/font&gt;" style="text;html=1;resizable=0;autosize=1;align=center;verticalAlign=middle;points=[];fillColor=none;strokeColor=none;rounded=0;fontSize=20;fontColor=#000000;" vertex="1" parent="1">
          <mxGeometry x="495" y="120" width="50" height="40" as="geometry" />
        </mxCell>
        <mxCell id="oYV344bJFudDzy7ibG9--19" value="&lt;font style=&quot;font-size: 14px;&quot;&gt;11位&lt;/font&gt;" style="text;html=1;resizable=0;autosize=1;align=center;verticalAlign=middle;points=[];fillColor=none;strokeColor=none;rounded=0;fontSize=20;fontColor=#000000;" vertex="1" parent="1">
          <mxGeometry x="162.5" y="120" width="50" height="40" as="geometry" />
        </mxCell>
        <mxCell id="oYV344bJFudDzy7ibG9--20" value="" style="shape=crossbar;whiteSpace=wrap;html=1;rounded=1;fontSize=14;fontColor=#000000;strokeWidth=3;fillOpacity=100;labelPadding=0;" vertex="1" parent="1">
          <mxGeometry x="122.5" y="160" width="10" height="20" as="geometry" />
        </mxCell>
        <mxCell id="oYV344bJFudDzy7ibG9--21" value="" style="shape=crossbar;whiteSpace=wrap;html=1;rounded=1;fontSize=14;fontColor=#000000;strokeWidth=3;fillOpacity=100;labelPadding=0;" vertex="1" parent="1">
          <mxGeometry x="242.5" y="160" width="520" height="20" as="geometry" />
        </mxCell>
        <mxCell id="oYV344bJFudDzy7ibG9--22" value="" style="shape=crossbar;whiteSpace=wrap;html=1;rounded=1;fontSize=14;fontColor=#000000;strokeWidth=3;fillOpacity=100;labelPadding=0;" vertex="1" parent="1">
          <mxGeometry x="132.5" y="160" width="110" height="20" as="geometry" />
        </mxCell>
      </root>
    </mxGraphModel>
  </diagram>
</mxfile>
